<?xml version="1.0" encoding="utf-8"?>
<svg viewBox="0 0 500 500" xmlns="http://www.w3.org/2000/svg">
  <path d="M 355.431 202.359 C 355.431 202.359 437.094 189.135 450 150.592 L 324.89 150.592 L 324.89 120 L 50 120 L 83.867 160.327 L 83.867 201.649 C 83.867 201.649 169.304 197.096 202.355 222.809 C 247.601 265.849 151.479 324.022 151.479 324.022 L 134.988 380 C 160.76 354.805 209.891 322.222 299.962 323.804 C 265.686 334.915 231.22 352.284 204.385 380 L 386.463 380 L 369.318 324.022 C 369.318 324.022 237.353 244.159 355.431 202.359 Z" style="" transform="matrix(0.9999999999999999, 0, 0, 1, 0, 0)"/>
</svg>